<svg width="120" height="80" viewBox="0 0 120 80" fill="none" xmlns="http://www.w3.org/2000/svg">
<g id="svgexport-1 (1) 1">
<g id="Group 7">
<path id="Vector" d="M83.0775 21.9995H79.2663V29.5438C79.2663 32.0028 81.8702 34.1038 85.0895 34.1038C88.3089 34.1038 91.1258 31.979 91.1258 29.5438V21.9995H87.3147V28.8037C87.3147 29.9258 86.3678 30.833 85.2079 30.833C84.0243 30.833 83.0775 29.9258 83.0775 28.7798V21.9995Z" fill="#E21B4D"/>
<path id="Vector_2" d="M22.6198 17.8455V33.507H18.6666V14.6224H25.7918C28.8928 14.6224 31.4257 17.1531 31.4257 20.2329C31.4257 22.8591 29.603 25.0555 27.1411 25.6285L32.633 33.507H27.9223L23.9691 27.3236V22.8113H24.8923C26.3599 22.8113 27.5435 21.7131 27.5435 20.3523C27.5435 18.9914 26.431 17.8455 24.9633 17.8455H22.6198Z" fill="#E21B4D"/>
<path id="Vector_3" d="M59.0033 33.507V13.7152H55.2632V23.0501C54.269 22.0712 53.0144 21.5221 51.5704 21.5221C48.4931 21.5221 45.9839 24.2676 45.9839 27.6817C45.9839 31.0718 48.4931 33.8412 51.5704 33.8412C53.038 33.8412 54.411 33.2682 55.2632 32.2178V33.507H59.0033ZM52.6356 30.6182C51.1206 30.6182 49.8897 29.2574 49.8897 27.5862C49.8897 25.915 51.1206 24.5541 52.6356 24.5541C54.1506 24.5541 55.3815 25.915 55.3815 27.5862C55.3579 29.2574 54.1269 30.6182 52.6356 30.6182Z" fill="#E21B4D"/>
<path id="Vector_4" d="M74.7213 23.2411C75.7392 22.2861 76.3783 20.9969 76.3783 19.5883C76.3783 18.2991 75.8812 17.1292 75.0291 16.1981C74.1295 15.2193 72.5672 14.6224 70.4367 14.6224H64.069V33.507H72.3068C75.4551 33.4592 78.0117 31.0479 78.0117 28.0875C77.988 25.9388 77.2305 24.4109 74.7213 23.2411ZM71.5493 30.2362H67.9749V18.0126H70.4841C71.573 18.0126 72.4962 18.8482 72.4962 19.9703C72.4962 21.0924 71.573 21.9996 70.4841 21.9996H69.1585V25.4136H71.5966C72.9223 25.4136 73.9165 26.5118 73.9165 27.8488C73.8691 29.1858 72.9933 30.1646 71.5493 30.2362Z" fill="#E21B4D"/>
<path id="Vector_5" d="M35.947 26.2732C35.947 25.0078 36.9649 23.9812 38.2195 23.9812C39.4741 23.9812 40.492 25.0078 40.492 26.2732H35.947ZM44.1847 28.4218C44.2084 28.1592 44.2321 27.8966 44.2321 27.634C44.2794 23.5515 41.6282 21.3312 38.2195 21.3312C34.8107 21.3312 32.0411 24.1483 32.0411 27.634C32.0411 31.1196 34.8107 33.9368 38.2195 33.9368C40.8234 33.9368 42.8591 32.7431 43.9007 30.8809L40.8707 29.4723C40.492 30.3079 39.5924 30.9048 38.5272 30.9048C37.1306 30.9048 35.9706 29.8304 35.9706 28.4218C36.0653 28.4218 44.1847 28.4218 44.1847 28.4218Z" fill="#E21B4D"/>
<path id="Vector_6" d="M96.6177 13.7152H92.8776V33.507H96.6177V13.7152Z" fill="#E21B4D"/>
<path id="Vector_7" d="M102.985 13.7152H99.2452V33.507H102.985V13.7152Z" fill="#E21B4D"/>
<path id="Vector_8" d="M52.2333 46.5902C52.2333 41.4811 56.3285 37.3508 61.3942 37.3508C66.46 37.3508 70.5552 41.4811 70.5552 46.5902C70.5552 51.6993 66.46 55.8295 61.3942 55.8295C56.3285 55.8295 52.2333 51.6754 52.2333 46.5902Z" fill="#FFD300"/>
<path id="Vector_9" fill-rule="evenodd" clip-rule="evenodd" d="M54.0322 41.0988C54.1742 41.1704 54.3162 41.242 54.482 41.3375C55.1684 41.815 55.6182 42.2209 56.6598 43.1042C56.9675 43.4146 57.3226 43.9159 57.5829 44.2263C58.1511 44.9425 58.5535 45.4439 58.6245 46.0408C58.7902 47.2345 58.9559 47.903 59.4057 49.1205C59.453 49.2399 59.6424 49.407 59.7608 49.5503C60.0448 49.9084 60.1632 50.4814 60.6839 50.7917C60.968 50.9589 61.0154 50.9827 61.11 51.0544C61.2521 51.1737 61.0154 51.6035 60.2815 51.508C60.6603 51.699 60.6129 52.1287 60.0685 52.1526C59.0033 52.2003 58.3404 51.5796 58.1984 51.4125C58.1274 51.3408 57.9144 51.6273 57.5356 51.7706C57.1569 51.9616 56.6361 51.7706 56.2337 51.8422C55.8549 51.9138 55.3578 52.1526 54.9554 52.1765C54.2452 52.2003 54.1505 51.699 54.1505 51.2692C54.1505 51.1737 54.1505 51.1021 54.1505 51.0782C54.0795 51.3409 53.8191 51.7945 53.8191 51.7945C53.7245 52.0093 53.5824 52.2719 53.322 52.3674L52.5645 52.4629C51.9727 52.7256 51.381 52.9166 50.7655 53.1314C50.4104 53.203 50.008 53.1314 49.7476 52.9166C49.5346 52.7494 49.4162 52.5346 49.2978 52.3197C49.1795 52.2719 49.0138 52.3197 48.8717 52.2719C48.7534 52.2481 48.6824 52.1526 48.6114 52.081L48.0906 51.1976C48.0432 51.0782 48.0432 50.9111 48.0906 50.7917C48.1853 50.6007 48.3983 50.5053 48.6114 50.5053C48.9901 50.4814 49.4162 50.362 49.7949 50.5053C49.9606 50.3143 50.221 50.3381 50.4578 50.2904C50.3631 50.1471 50.221 50.0755 50.1027 49.9561C49.4162 50.1233 48.6587 50.0039 47.9959 49.8845C47.3804 49.7413 46.8596 50.0994 46.2442 50.0039L46.0548 50.4098C45.7707 50.7201 45.7471 51.2454 45.321 51.4602C45.0132 51.5318 44.7765 51.7467 44.5161 51.89C44.0427 52.1526 43.4036 52.0332 42.8828 51.9377C42.6697 51.9138 42.5277 51.9377 42.3383 52.0093C42.1726 52.1287 41.9833 52.3197 41.7939 52.4629C41.4862 52.5823 41.2258 52.8449 40.8944 52.8688C40.705 52.8688 40.5156 52.7494 40.3262 52.7972C40.0895 53.0598 39.9712 53.4895 39.5924 53.6089C39.2137 53.7283 38.7402 53.6328 38.3615 53.5373C38.2431 53.585 38.1721 53.6805 38.0301 53.6567C37.7697 53.585 37.5093 53.5134 37.2726 53.3702C37.1779 53.2747 37.1542 53.1553 37.1306 53.0598C37.1306 52.8927 37.2726 52.7494 37.3436 52.6062C37.3673 52.4391 37.3673 52.2003 37.4383 52.0332C37.5566 51.7706 37.817 51.6035 38.0774 51.4841C38.1011 51.2931 38.2195 51.126 38.3852 51.0305C38.6929 50.8634 39.0243 50.4814 39.4267 50.6962L39.8528 51.0544C40.2316 50.8872 40.1369 50.5053 40.3262 50.1949C40.4209 49.98 40.5393 49.7413 40.776 49.7413C40.9417 49.7174 41.1311 49.7651 41.2968 49.7413C41.5335 49.6696 41.7939 49.5742 41.9596 49.3832L41.9359 49.2399C41.6992 48.7863 41.6282 48.2372 41.6045 47.6881C41.1784 47.7358 40.7287 47.8075 40.2789 47.712C39.6161 47.6165 38.977 47.0912 38.7166 46.4227C38.4325 45.7781 38.5509 44.8709 39.0006 44.3218C39.3557 43.8921 39.7581 43.5101 40.1842 43.1758C40.0422 43.1281 39.8765 43.152 39.7344 43.1042C39.119 43.0087 38.5035 42.4596 38.3615 41.8389C38.2668 41.433 38.3615 41.051 38.5509 40.7168C38.6219 40.6452 38.6929 40.5735 38.8112 40.6213C39.119 40.7407 39.2137 40.9078 39.4977 41.051L39.6634 41.1465C40.4446 41.4091 41.4862 41.4091 41.7939 42.388C41.9833 43.152 41.5098 43.725 40.9654 44.1547C40.5393 44.4651 40.1132 44.847 39.9001 45.3007C39.8055 45.6349 39.8528 45.9691 40.1369 46.2079C40.4209 46.4944 40.918 46.4944 41.2731 46.3511C41.9359 46.0646 42.5514 45.6349 43.1432 45.1813C43.7113 44.7515 44.3978 44.5844 45.1316 44.5606C45.463 44.4889 45.7471 44.3457 46.0075 44.1308C46.4572 43.7011 46.9307 43.343 47.4988 43.1997C47.7592 43.152 48.0196 43.1281 48.28 43.1042C48.493 43.0087 48.635 42.7461 48.8007 42.6267C49.5819 41.9344 50.6235 41.9583 51.452 41.4091C51.9254 41.051 52.4462 40.8123 53.0616 40.8362C53.3457 40.86 53.6061 40.9078 53.8428 41.0033L54.0322 41.0988ZM54.8134 49.216C54.2926 49.2399 53.9612 49.3593 53.6061 49.407C53.6298 49.7413 53.8191 50.0278 54.0795 50.3859C54.2216 49.8368 54.6713 49.6219 54.8134 49.216Z" fill="#FFD300"/>
<path id="Vector_10" fill-rule="evenodd" clip-rule="evenodd" d="M68.1405 49.3356C68.3772 49.6937 68.5192 50.0519 68.7323 50.4339C68.9453 50.028 69.1347 49.646 69.3241 49.4073C69.3004 49.3834 68.6849 49.455 68.1405 49.3356ZM68.6376 51.1023C68.6139 51.174 68.5666 51.1978 68.4719 51.1978C68.5429 51.5321 68.3062 52.1528 67.7144 52.1767C67.312 52.2006 66.6492 51.7947 66.2704 51.7708C65.868 51.7469 65.1342 52.0573 64.7081 51.4127C64.14 52.1051 63.4772 52.296 62.909 52.2722C62.5776 52.2722 62.2226 52.0812 62.7197 51.6514C61.6308 52.0096 61.6308 51.2695 61.8201 51.1262C61.9385 51.0307 62.0805 50.9591 62.4829 50.5532C63.9979 48.9536 63.4298 46.1842 65.0868 44.3459C65.726 43.6297 66.2467 43.2238 67.5487 42.2927C67.9985 41.9824 68.4482 41.5287 68.8743 41.2184L68.898 41.2661V41.2423C69.1584 41.0513 69.3951 40.8603 69.6792 40.7886C70.2709 40.717 70.8154 40.908 71.2652 41.2184C71.5019 41.3855 71.6913 41.5765 71.8806 41.8152C72.0227 41.9585 72.2357 41.9585 72.4251 42.0301C72.9695 42.1256 73.443 42.3405 73.8927 42.627C74.2005 42.818 74.4608 43.1522 74.8396 43.1999C75.2894 43.2716 75.6918 43.4148 76.0942 43.6536C76.5676 43.9639 76.9937 44.3459 77.5618 44.4414C78.6981 44.5608 79.645 45.2054 80.5445 45.85C81.0653 46.1604 81.6807 46.5185 82.3199 46.3036C82.5092 46.232 82.6513 46.0649 82.6986 45.8977C82.746 45.468 82.4856 45.1338 82.2252 44.8234C81.6807 44.1788 80.7339 43.6297 80.8522 42.6986C81.0179 42.0062 81.7754 41.6004 82.3672 41.4094C82.6986 41.29 83.101 41.3377 83.3851 41.0513C83.5271 40.9558 83.5981 40.6215 83.8349 40.7409C84.0242 40.8603 84.0479 41.099 84.0716 41.3139C84.1663 41.9824 84.0242 42.6508 83.4088 43.0328C83.1247 43.2238 82.817 43.2954 82.4856 43.3671C82.9827 43.7729 83.4798 44.2743 83.7638 44.8473C83.9295 45.1815 84.0242 45.468 84.0479 45.85C84.0242 46.5662 83.5981 47.1869 82.9827 47.5451C82.6276 47.7361 82.2252 47.8077 81.7991 47.8077C81.6334 47.8077 81.4914 47.7599 81.3493 47.7599C81.4203 48.0942 81.4203 48.5478 81.3493 48.9298C81.3257 49.1208 81.2073 49.3356 81.2073 49.5744C81.302 49.6937 81.444 49.6937 81.5624 49.6937C81.8701 49.6937 82.2489 49.6699 82.4146 50.0041C82.5566 50.3145 82.6276 50.6726 82.746 50.983C82.7933 51.0307 82.817 51.1501 82.888 51.1262C83.101 50.9352 83.3141 50.6726 83.6218 50.7442C83.9059 50.9352 84.1899 51.1501 84.474 51.3649C84.545 51.4366 84.5687 51.5321 84.5924 51.6514C84.8291 51.7469 85.1368 51.9141 85.2078 52.2005C85.2552 52.3915 85.2315 52.5825 85.2788 52.7497C85.3499 52.9407 85.5392 53.1794 85.3972 53.4181L85.3025 53.4898L84.403 53.7763C84.332 53.7763 84.261 53.7285 84.1899 53.6569C83.7165 53.633 83.1484 53.7762 82.7696 53.442C82.6039 53.2988 82.4856 53.1316 82.3672 52.9407C82.0832 53.0839 81.6807 53.1794 81.3967 52.9884C80.8049 52.5348 80.2131 52.0812 79.4082 52.1051C79.0532 52.1767 78.6271 52.2722 78.272 52.1289C77.9406 51.8902 77.5618 51.7708 77.3015 51.4127C76.9227 51.0068 76.9227 50.5294 76.7807 50.028C76.2599 50.1474 75.6918 50.0757 75.171 50.0519C74.7449 50.028 74.3425 50.0996 73.9401 50.1951C73.443 50.2906 72.8985 50.3384 72.3777 50.3145L72.1173 50.5055C72.2357 50.5294 72.3541 50.5294 72.4487 50.6248L72.5434 50.7203C72.9695 50.7681 73.4666 50.6965 73.8691 50.792C73.9637 50.8158 74.0584 50.9113 74.1058 51.0068C74.1531 51.1262 74.1531 51.2695 74.0821 51.3649C73.8691 51.6514 73.7507 51.9857 73.4666 52.2244C73.3956 52.3199 73.1826 52.2005 73.1589 52.3677C73.0642 52.7974 72.6618 53.1555 72.2594 53.251C72.0937 53.2749 71.9043 53.251 71.7623 53.2033C71.2652 53.0361 70.7681 52.8929 70.2709 52.7497C70.1052 52.7019 69.9632 52.5348 69.8212 52.4393C69.6081 52.4393 69.3004 52.5109 69.1584 52.3199C69.0874 52.2722 69.0163 52.1051 68.9927 52.0334C68.827 51.8186 68.7086 51.4366 68.6376 51.1023Z" fill="#FFD300"/>
<path id="Vector_11" fill-rule="evenodd" clip-rule="evenodd" d="M53.7956 44.1073C53.9377 44.4654 53.9377 44.9429 53.843 45.3248C53.8193 45.3487 53.7956 45.3487 53.772 45.3248C53.7009 44.9906 53.6299 44.6564 53.5116 44.3221C53.4405 44.1311 53.2038 43.964 53.2985 43.7491C53.3459 43.7014 53.4405 43.7014 53.5116 43.7253C53.6299 43.8446 53.7009 43.964 53.7956 44.1073ZM57.5831 47.4497C57.8435 47.76 58.0329 48.0943 57.9382 48.5001C57.8908 48.5717 57.9145 48.715 57.7962 48.7389C57.7488 48.7627 57.7015 48.715 57.7015 48.6672C57.6778 48.4524 57.6778 48.2136 57.5594 48.0465C57.4174 47.9033 57.2517 47.6168 57.015 47.6168C56.8493 47.6645 56.7309 47.8555 56.6362 47.9749C56.6362 47.9988 56.6126 47.9988 56.5889 47.9749C56.4942 47.7361 56.6836 47.5451 56.7546 47.3542C56.8966 47.2109 56.8729 46.8051 57.1807 46.9244C57.3937 47.0677 57.4411 47.3064 57.5831 47.4497ZM57.086 50.2907C57.1097 50.4339 57.1097 50.6488 56.9676 50.7443C56.8256 50.7921 56.6362 50.8159 56.4705 50.7921C56.4232 50.7682 56.3758 50.7443 56.3995 50.6966C56.4705 50.4817 56.6836 50.2429 56.9203 50.1952C56.9676 50.1952 57.0623 50.1952 57.086 50.2907ZM39.8056 41.5766C40.3737 41.7198 40.9892 41.7198 41.4153 42.1734C41.652 42.4599 41.6757 42.9613 41.4863 43.2478C41.1549 43.8208 40.4921 44.1073 40.0897 44.6086C39.6873 44.9429 39.5452 45.4681 39.6636 45.9933C39.8056 46.4469 40.2554 46.7573 40.7051 46.7812C41.4153 46.805 41.9361 46.4469 42.5042 46.1127C43.0723 45.7068 43.5931 45.1816 44.2322 45.0145C44.6583 44.8712 45.1318 44.9429 45.5579 44.7757C46.0076 44.6802 46.3627 44.2982 46.7178 43.964C47.1202 43.6298 47.5936 43.4388 48.1144 43.4626C48.5878 43.5343 48.8482 43.1045 49.1796 42.818C49.7241 42.3167 50.4342 42.2689 51.0734 41.9824C51.5231 41.8392 51.8782 41.505 52.3043 41.2901C52.7067 41.123 53.2512 41.0752 53.6536 41.2423C53.914 41.3617 54.198 41.4811 54.4348 41.6721L56.3522 43.2955C56.3758 43.3672 56.4469 43.4149 56.4942 43.4388C57.0387 44.1073 57.6068 44.7519 58.0565 45.492C58.1986 45.7546 58.2696 46.0172 58.3406 46.3037C58.4353 47.4019 58.7193 48.3569 59.0744 49.3118C59.1691 49.4551 59.3585 49.5745 59.4532 49.7177C59.7609 50.1474 59.9503 50.6966 60.4474 50.983L60.7314 51.1263C60.7551 51.1502 60.7551 51.1979 60.7314 51.2218L60.6841 51.2695C60.0923 51.365 59.6425 51.0069 59.3348 50.5772C59.1454 50.1952 58.8851 49.7893 58.459 49.6222C58.4353 49.6222 58.4116 49.6461 58.4116 49.6461C58.459 49.7893 58.601 49.8848 58.6483 50.0042C58.814 50.2668 58.9561 50.5533 59.0271 50.8398C59.1218 51.1502 59.4532 51.365 59.7136 51.5322L60.0923 51.7232C60.1397 51.747 60.1633 51.8186 60.116 51.8664L60.0686 51.8903C59.4295 51.9141 58.8614 51.6993 58.4116 51.2218C58.3169 51.1024 58.1749 51.0069 58.0092 51.0069C57.7251 51.2695 57.4411 51.5083 57.0623 51.5322C56.6599 51.4605 56.2338 51.4605 55.8787 51.6038C55.5473 51.7232 55.2159 51.8664 54.8608 51.8664C54.6951 51.8664 54.5058 51.7948 54.4348 51.6277C54.4348 51.4128 54.2927 51.174 54.4111 50.9592L54.6478 50.6011C54.6478 50.5533 54.6241 50.5056 54.5768 50.5056C54.4821 50.4817 54.3164 50.6488 54.2691 50.4817C54.2927 50.1236 54.6478 49.8848 54.8845 49.6461C54.9319 49.3596 55.0502 49.097 55.2633 48.8582C55.2633 48.8344 55.2396 48.7866 55.1923 48.7866C54.8845 48.8344 54.5768 48.906 54.2454 48.906C53.985 49.0492 53.6536 49.1447 53.3459 49.0492C53.2748 49.0015 53.2985 48.9299 53.3222 48.8821C53.6536 48.4285 53.7719 47.8555 53.6773 47.3064C53.6536 47.2825 53.6536 47.2348 53.6062 47.2348C53.5589 47.2348 53.5589 47.2825 53.5352 47.3064C53.4642 47.8316 53.2985 48.2375 53.0145 48.6911C52.8014 48.906 52.47 48.906 52.1859 48.9776C52.1149 49.0015 52.0439 49.0731 52.0439 49.1447C52.0439 49.3357 52.1623 49.4551 52.2333 49.6222L52.8488 50.7682C52.8724 51.0785 52.7304 51.3889 52.6594 51.6754C52.6831 51.7232 52.7304 51.6993 52.7777 51.6754C52.9908 51.4844 53.1328 51.2218 53.2275 50.9353C53.2512 50.8159 53.2038 50.6727 53.1565 50.5772L52.5173 49.288C52.5647 49.2164 52.6594 49.2164 52.7304 49.1925C52.8724 49.1925 53.0145 49.2641 53.1565 49.3118C53.2985 49.6938 53.4642 50.0997 53.7246 50.4339C53.772 50.6488 53.843 50.9353 53.7009 51.1024C53.5589 51.3889 53.4169 51.6277 53.2275 51.8903C53.0618 52.0574 52.8251 52.0335 52.5884 52.0574H52.5173C51.9492 52.3678 51.3574 52.5588 50.742 52.7497C50.4816 52.8691 50.1738 52.7736 49.9608 52.6065C49.7478 52.4394 49.6531 52.2006 49.511 51.9858C49.3453 51.7709 49.0849 51.9619 48.8956 51.8425C48.7299 51.5799 48.5642 51.3173 48.4221 51.0308C48.4221 50.9592 48.4221 50.8876 48.4931 50.8398C48.7062 50.7682 48.9429 50.7682 49.1796 50.7443C49.3927 50.7204 49.6294 50.7682 49.7714 50.9114C50.0555 51.2457 50.1738 51.6993 50.5999 51.9141C50.9313 51.938 51.2154 51.8425 51.4995 51.6993C51.6652 51.6038 51.8545 51.4605 51.8545 51.2457C51.8309 50.8159 51.5468 50.4817 51.1917 50.2429C50.8367 50.052 50.4579 49.7893 50.1975 49.4551C50.0555 49.2641 50.0318 49.0492 49.9608 48.8582C49.9371 48.8105 49.8424 48.8105 49.8188 48.8344C49.6767 48.9537 49.7951 49.1686 49.7951 49.3118C49.8188 49.4073 49.8661 49.5267 49.8188 49.5983C49.6057 49.7655 49.3217 49.67 49.0613 49.6938C48.5405 49.67 48.0434 49.4551 47.4989 49.5028C46.9782 49.5267 46.268 49.8848 45.8893 49.3596C45.6999 48.8582 45.7472 48.2614 45.8419 47.76C45.8419 47.7123 45.7946 47.6645 45.7472 47.6645C45.6999 47.6406 45.6525 47.6645 45.6289 47.7123C45.4868 48.2136 45.4632 48.7627 45.3448 49.288C45.1554 49.7416 44.824 50.2191 44.3743 50.4578C43.9718 50.6727 43.4984 50.7443 43.0013 50.7921C42.1018 50.8159 41.2733 50.983 40.7051 51.7709C40.6578 51.8425 40.5868 51.9141 40.6105 52.0096C40.6341 52.0335 40.7051 52.0574 40.7288 52.0335C41.3443 51.3412 42.1254 51.0547 43.025 51.1024C43.8772 51.1024 44.7293 50.9592 45.2738 50.2191C45.4158 50.0519 45.5105 49.8848 45.6289 49.6938C45.7236 49.6938 45.7946 49.8132 45.8656 49.861C45.8893 50.1236 45.6762 50.2907 45.5815 50.5056C45.4632 50.7443 45.3448 51.0308 45.1081 51.174C44.824 51.2457 44.5873 51.4367 44.3269 51.5799C44.0665 51.6993 43.7351 51.747 43.4274 51.6754C43.0486 51.6038 42.5279 51.5083 42.1491 51.6754C41.9597 51.7948 41.794 52.0096 41.6047 52.129C41.3443 52.2484 41.1076 52.4633 40.7998 52.4394C40.5868 52.3916 40.3264 52.2484 40.137 52.4394C39.9003 52.6542 39.853 53.0362 39.5452 53.1795C39.1901 53.3705 38.8114 53.1795 38.4563 53.1556C38.5037 52.7975 38.551 52.4633 38.7877 52.2006C38.9298 52.1768 39.0481 52.1529 39.1665 52.0574C39.3085 51.938 39.4032 51.7709 39.4979 51.6038C39.8056 51.4128 40.1607 51.2695 40.3501 50.9353C40.4921 50.6249 40.4921 50.3384 40.7288 50.052L40.8472 50.0042L41.4863 49.9565C41.7467 49.8371 41.9834 49.7177 42.2201 49.5267C42.2911 49.4551 42.3148 49.3357 42.2912 49.2164C42.1728 48.906 42.0781 48.6911 42.0071 48.3569C41.9361 48.0226 41.9834 47.6884 41.9361 47.3064C41.9124 47.2825 41.8887 47.2109 41.8414 47.2109C41.4153 47.3064 41.0129 47.4258 40.5394 47.3542C39.9003 47.2825 39.2375 46.8528 39.0008 46.2082C38.7877 45.6591 38.8351 44.8712 39.2375 44.4176C39.6162 43.9401 40.0897 43.582 40.5631 43.1762C40.6341 43.1284 40.6341 43.0329 40.6578 42.9613C40.6578 42.8658 40.5631 42.7942 40.4921 42.7464C40.208 42.6748 39.8766 42.7703 39.5926 42.6509C39.0955 42.4838 38.7167 42.0063 38.6457 41.4811C38.622 41.2423 38.6694 41.0513 38.7877 40.8604C39.1665 41.1946 39.4505 41.4811 39.8056 41.5766ZM38.3853 52.2484V52.32C38.267 52.6065 38.1959 52.9407 38.1012 53.275C37.8882 53.2511 37.6988 53.1795 37.5331 53.1079C37.4858 53.0601 37.5331 53.0124 37.5331 52.9646C37.7462 52.7736 37.6752 52.5349 37.7225 52.2723C37.7462 52.129 37.8882 52.0096 38.0302 51.938C38.1959 51.9619 38.2906 52.129 38.3853 52.2484ZM39.4269 51.2457C39.3085 51.4844 39.1428 51.7709 38.8824 51.9141C38.7877 51.938 38.6694 51.938 38.5747 51.8903C38.5273 51.8425 38.4327 51.7948 38.4327 51.6993C38.4563 51.6038 38.409 51.4844 38.5037 51.4367C38.693 51.3173 38.8824 51.1979 39.0718 51.0308C39.1191 51.0069 39.2138 50.983 39.2375 51.0308C39.3322 51.1024 39.4032 51.1502 39.4269 51.2457ZM51.2864 51.1502C51.3101 51.2457 51.4521 51.365 51.3574 51.4605C51.1681 51.6038 50.955 51.6993 50.6946 51.6754C50.5052 51.5322 50.5289 51.2695 50.3632 51.0785C50.3159 50.9353 50.1028 50.9353 50.1502 50.7921L50.2212 50.7443C50.4816 50.7443 50.742 50.7443 51.0024 50.6966C51.2627 50.6727 51.1917 50.983 51.2864 51.1502Z" fill="#E21B4D"/>
<path id="Vector_12" fill-rule="evenodd" clip-rule="evenodd" d="M66.2469 47.2587C66.3889 47.4497 66.5073 47.6407 66.602 47.8794C66.6256 47.9272 66.602 47.9749 66.5783 48.0226C66.5546 48.0704 66.5073 48.1181 66.4363 48.0704C66.2706 48.0226 66.2942 47.76 66.0812 47.7839C65.9392 47.7839 65.8445 47.9033 65.7261 47.9749C65.5131 48.1659 65.229 48.3569 65.1817 48.6434C65.1343 48.7389 65.158 48.906 65.0633 48.9537C65.016 48.9776 64.945 48.9299 64.945 48.8821C64.9213 48.5001 65.0396 48.142 65.3 47.8794C65.5604 47.6645 65.7498 47.3542 65.9628 47.0916C66.1049 47.0677 66.1996 47.1632 66.2469 47.2587ZM66.3416 50.434C66.3889 50.5294 66.4836 50.6488 66.4126 50.7682C66.3179 50.8398 66.1522 50.7921 66.0339 50.7921C65.8918 50.7204 65.8445 50.5294 65.8445 50.3623C65.8445 50.3146 65.8445 50.2907 65.8918 50.243C66.0575 50.243 66.2232 50.2907 66.3416 50.434ZM69.8924 43.1284C69.9634 43.2239 69.8924 43.3194 69.845 43.391C69.5136 43.7014 69.1112 44.0356 68.8745 44.4176C68.7798 44.537 68.7088 44.6802 68.6614 44.8235C68.6614 44.8474 68.6377 44.8474 68.6141 44.8474C68.5431 44.6564 68.6377 44.4415 68.6851 44.2505C68.8508 43.7969 69.2295 43.3672 69.632 43.0568C69.6793 43.0329 69.845 43.009 69.8924 43.1284ZM71.2416 41.6005C71.502 41.7676 71.5967 42.1257 71.9044 42.1973C72.4252 42.3167 72.946 42.4361 73.4194 42.6748C73.7508 42.8419 74.0586 43.0807 74.3663 43.3433C74.6504 43.4865 75.0055 43.4865 75.3132 43.582C75.7629 43.7014 76.118 44.0356 76.5204 44.2983C77.0412 44.7041 77.775 44.6564 78.3668 44.919C79.3137 45.2294 80.0712 45.9695 80.9471 46.3992C81.3968 46.6379 82.0833 46.7334 82.5331 46.4708C82.8408 46.256 83.0302 45.9695 82.9592 45.5636C82.7935 44.5847 81.7282 44.0834 81.2311 43.2717C81.1364 43.0807 81.0654 42.8181 81.1128 42.6032C81.3021 42.1257 81.7992 41.8631 82.2253 41.696C82.5567 41.5288 82.9828 41.5766 83.2906 41.3856C83.4089 41.314 83.5036 41.2185 83.5746 41.1469C83.6456 41.1469 83.6456 41.2185 83.6693 41.2662C83.764 41.8392 83.6693 42.4361 83.1722 42.7703C82.9828 42.9136 82.7461 42.9613 82.5331 43.009C82.3437 43.0807 81.9649 42.9374 81.9886 43.2717C82.036 43.4388 82.178 43.5343 82.2963 43.6537C82.9592 44.2028 83.5746 44.919 83.6456 45.7785C83.6693 46.4469 83.2195 47.0199 82.6514 47.3064C82.2253 47.4735 81.7046 47.5452 81.2548 47.4258C81.1364 47.4019 80.9471 47.2825 80.8524 47.4497C80.8287 47.6407 80.9471 47.7839 80.9471 47.951C80.9944 48.2614 80.9944 48.6673 80.8997 48.9776C80.8524 49.2164 80.6157 49.5029 80.8287 49.7416C81.0417 50.0758 81.4678 49.9803 81.8229 50.0281C82.0123 50.052 82.0833 50.2668 82.1306 50.4101C82.2017 50.6011 82.2017 50.8159 82.2727 50.9592C82.2727 51.3173 82.6751 51.4605 82.8645 51.6993C83.1012 51.9619 83.3142 52.4155 83.7167 52.3916C83.8587 52.6781 83.9297 52.9408 83.977 53.275L83.9297 53.3227C83.5983 53.3227 83.1485 53.4182 82.9118 53.1795C82.6278 52.9885 82.5331 52.4633 82.107 52.6065C81.9176 52.7498 81.6572 52.7975 81.4442 52.702C81.2311 52.6304 81.0891 52.4394 80.8997 52.32C80.3316 51.8903 79.5741 51.6754 78.8403 51.8425C78.4142 51.9619 78.0828 51.6515 77.7514 51.4605C77.3016 51.2696 77.1833 50.7921 77.0886 50.3862L77.0175 49.8848C77.0175 49.8371 77.0649 49.7893 77.1122 49.7655H77.1833C77.4436 50.3623 77.9407 51.0308 78.5799 51.2457C79.1717 51.4844 79.7161 51.1741 80.3553 51.2934C80.9471 51.365 81.4205 51.747 81.8703 52.1052C81.9176 52.1052 81.9413 52.0813 81.9649 52.0335V51.9858C81.4205 51.2934 80.663 50.9353 79.7871 51.0069C79.0533 51.1502 78.3432 50.9114 77.9171 50.2907C77.6804 49.9326 77.5147 49.5506 77.4436 49.1447C77.3726 48.6673 77.2779 48.142 77.1122 47.7123C77.0649 47.6884 77.0176 47.6407 76.9702 47.6645L76.9229 47.7362C76.9939 48.1898 77.1359 48.7389 76.9702 49.2164C76.8518 49.5984 76.4731 49.7416 76.118 49.7655C75.7629 49.7893 75.4315 49.7177 75.0528 49.7177C74.2006 49.6938 73.4431 50.0281 72.5673 49.9565C72.6383 49.7416 72.7803 49.5267 72.7093 49.288C72.6856 49.2402 72.6146 49.2402 72.5673 49.2402C72.4016 49.3357 72.4252 49.5506 72.3305 49.6938C72.1412 50.0042 71.7861 50.2907 71.431 50.3623C71.1706 50.5533 70.9339 50.8159 70.7209 51.0547C70.6498 51.1263 70.6498 51.2696 70.6735 51.365C70.8392 51.7948 71.3363 51.8425 71.7151 51.9619C71.9045 51.9858 72.0702 51.9142 72.1648 51.747C72.3305 51.4844 72.3542 51.0547 72.733 51.0069H73.5615C73.6325 51.0308 73.6798 51.0786 73.7272 51.1502L73.7035 51.2696C73.5141 51.4844 73.4431 51.7948 73.2064 51.938C73.0644 51.9858 72.8987 51.938 72.804 52.0574C72.7566 52.3439 72.6856 52.6543 72.4016 52.7975C72.1885 52.9885 71.8808 52.893 71.6441 52.8214C71.1943 52.6543 70.7445 52.5588 70.2948 52.4155C70.1054 52.3678 70.0344 52.129 69.8213 52.0813C69.632 52.0335 69.4189 52.1768 69.2532 52.0097C69.1585 51.7948 69.1112 51.6515 69.0638 51.4128C68.9928 51.2695 68.9455 51.1024 68.9218 50.9353C68.8981 50.7921 68.9218 50.6966 68.9692 50.5772L69.5846 49.4551C69.632 49.3835 69.6793 49.3119 69.7503 49.288C69.8924 49.3119 70.0581 49.3835 70.2001 49.4551L70.1764 49.5267L69.5373 50.5056C69.3952 50.8159 69.5373 51.1741 69.6793 51.4367C69.703 51.4605 69.7267 51.5083 69.7503 51.4844C69.7267 51.2934 69.703 51.1024 69.7503 50.8876C69.7977 50.6966 69.916 50.5294 70.0107 50.3623L70.5078 49.6222C70.5552 49.5029 70.5552 49.3119 70.4605 49.1925C70.2474 48.9776 69.9397 48.906 69.7503 48.6195C69.3479 48.0704 69.3006 47.4258 69.2532 46.7334C69.2532 46.6857 69.2059 46.6141 69.1349 46.5902C69.0875 46.5663 69.0402 46.6379 69.0165 46.6618C68.8981 47.1154 68.9692 47.6645 69.0875 48.0704C69.1585 48.3808 69.3006 48.6911 69.4426 48.9776C69.4663 49.0254 69.4189 49.097 69.3716 49.1209C69.0402 49.1447 68.7088 49.1209 68.401 49.0731C67.9749 49.0015 67.6672 48.6673 67.3121 48.4046C67.2648 48.3808 67.2411 48.4285 67.2174 48.4524C67.3121 48.9299 67.8329 49.2164 67.9986 49.6461C68.0933 50.0042 68.4484 50.2668 68.5194 50.6488C68.5194 50.6966 68.472 50.7682 68.4247 50.7921C68.3063 50.8159 68.188 50.7443 68.0696 50.8159C68.046 51.0308 68.188 51.2457 68.0933 51.4367C67.9749 51.6277 67.8092 51.8425 67.5962 51.8425C67.1701 51.6993 66.744 51.5083 66.3179 51.3889C66.0102 51.365 65.7025 51.4128 65.4184 51.4367C65.1343 51.3889 64.945 51.1263 64.7319 50.9831C64.6609 50.9592 64.5899 50.9592 64.5425 51.0069C64.0691 51.4844 63.5483 52.0097 62.8382 51.9858C62.7908 51.9858 62.7672 51.938 62.7672 51.8903V51.8425C63.0749 51.556 63.4536 51.2696 63.5957 50.8637C63.6904 50.5294 63.9744 50.2907 64.0928 49.9803C64.1164 49.9326 64.0691 49.9087 64.0218 49.8848L63.9507 49.9326C63.5957 50.2907 63.3353 50.6966 63.0749 51.0786C62.8145 51.3412 62.4357 51.5083 62.0333 51.4128C61.986 51.3889 61.986 51.3173 62.0097 51.2696C63.4773 50.3623 63.643 48.7389 64.0454 47.2587C64.3295 46.2798 64.5425 45.2771 65.3 44.4893C66.4363 43.2239 67.8566 42.4838 69.1112 41.3856C69.3006 41.2185 69.4899 41.0514 69.7266 41.0514C70.3421 41.0036 70.8156 41.2424 71.2416 41.6005ZM84.7582 52.1529C84.8766 52.32 84.8292 52.5826 84.8766 52.7736C84.9002 52.9169 85.0896 53.0362 84.9949 53.1795L84.4742 53.3466C84.3795 53.3466 84.4268 53.2272 84.3795 53.1795C84.3321 52.8691 84.2611 52.6543 84.1664 52.3678C84.1427 52.2006 84.3084 52.0813 84.4268 51.9858C84.5452 51.938 84.6399 52.0813 84.7582 52.1529ZM83.551 51.0786C83.7403 51.2457 84.0007 51.365 84.1427 51.5799C84.1664 51.6754 84.0954 51.7709 84.0481 51.8425C83.977 51.9142 83.8824 51.9619 83.764 51.9619C83.6456 51.9619 83.5509 51.8903 83.4799 51.7948C83.3616 51.6038 83.1959 51.4367 83.1485 51.2457C83.2195 51.1263 83.3853 50.9353 83.551 51.0786ZM72.1412 50.8876C72.1175 51.1263 72.0465 51.3412 71.9518 51.556C71.8808 51.6993 71.6677 51.6515 71.5257 51.6277C71.3837 51.5799 71.147 51.556 71.1233 51.3412C71.0996 51.1502 71.1943 50.9592 71.289 50.8159C71.502 50.7921 71.7624 50.8398 71.9755 50.7921C72.0702 50.7921 72.1412 50.8159 72.1412 50.8876Z" fill="#E21B4D"/>
<path id="Vector_13" d="M23.401 65.7611H26.6914V65.0687H24.1585V62.729H26.5967V62.0367H24.1585V60.3177H26.6914V59.6254H23.401V65.7611Z" fill="#E21B4D"/>
<path id="Vector_14" d="M29.9106 65.7611H30.6681V61.1773L35.2604 66.0237V59.6254H34.5029V64.1615L29.9106 59.3151V65.7611Z" fill="#E21B4D"/>
<path id="Vector_15" d="M38.5273 65.7611H41.794V65.0687H39.2848V62.729H41.723V62.0367H39.2848V60.3177H41.794V59.6254H38.5273V65.7611Z" fill="#E21B4D"/>
<path id="Vector_16" d="M46.765 63.0873C47.6409 62.9918 48.2326 62.2517 48.2326 61.3684C48.2326 60.7715 47.9486 60.1985 47.4278 59.8882C46.9544 59.6017 46.3626 59.6017 45.8181 59.6017H44.8949V65.7613H45.6524V63.159H45.9602L47.7592 65.7613H48.6824L46.765 63.0873ZM45.6524 60.294H45.8655C46.623 60.294 47.5225 60.4373 47.5225 61.3923C47.5225 62.3711 46.6703 62.5143 45.9128 62.5143H45.6761V60.294H45.6524Z" fill="#E21B4D"/>
<path id="Vector_17" d="M54.1506 62.6576V63.35H55.7366C55.7129 64.3527 54.695 65.1644 53.7482 65.1644C52.4226 65.1644 51.381 63.9468 51.381 62.6576C51.381 61.2729 52.4462 60.1508 53.8192 60.1508C54.5767 60.1508 55.3105 60.5567 55.7366 61.1535L56.2811 60.6283C55.6893 59.8643 54.7424 59.4346 53.7955 59.4346C52.0438 59.4346 50.6235 60.8909 50.6235 62.6576C50.6235 64.3527 51.9965 65.8568 53.7008 65.8568C55.4052 65.8568 56.5888 64.5675 56.5888 62.8725V62.6337H54.1506V62.6576Z" fill="#E21B4D"/>
<path id="Vector_18" d="M60.755 63.0871V65.7611H61.5125V63.0871L63.5009 59.6254H62.625L61.1337 62.2515L59.6187 59.6254H58.7429L60.755 63.0871Z" fill="#E21B4D"/>
<path id="Vector_19" d="M68.7324 65.7613H69.9633C71.8807 65.7613 73.4194 64.7585 73.4194 62.6576C73.4194 60.6044 71.8571 59.6017 69.987 59.6017H68.7324V65.7613ZM69.4899 60.3179H69.7503C71.3126 60.3179 72.6382 60.8909 72.6382 62.7053C72.6382 64.4959 71.2889 65.0689 69.7503 65.0689H69.4899V60.3179Z" fill="#E21B4D"/>
<path id="Vector_20" d="M78.1774 63.0873C79.0532 62.9918 79.645 62.2517 79.645 61.3684C79.645 60.7715 79.361 60.1985 78.8402 59.8882C78.3668 59.6017 77.775 59.6017 77.2305 59.6017H76.3073V65.7613H77.0648V63.159H77.3725L79.1716 65.7613H80.0948L78.1774 63.0873ZM77.0648 60.294H77.2779C78.0354 60.294 78.9349 60.4373 78.9349 61.3923C78.9349 62.3711 78.0827 62.5143 77.3252 62.5143H77.0885V60.294H77.0648Z" fill="#E21B4D"/>
<path id="Vector_21" d="M83.2432 59.6254H82.4857V65.7849H83.2432V59.6254Z" fill="#E21B4D"/>
<path id="Vector_22" d="M86.2968 65.7611H87.0543V61.1773L91.623 66.0237V59.6254H90.8655V64.1615L86.2968 59.3151V65.7611Z" fill="#E21B4D"/>
<path id="Vector_23" d="M95.4578 62.2754V59.6254H94.7003V65.7611H95.4578V63.2065L95.7655 62.8961L98.0617 65.7611H99.0796L96.2863 62.3709L99.0322 59.6254H98.038L95.4578 62.2754Z" fill="#E21B4D"/>
<path id="Vector_24" d="M106.891 13.596C107.317 13.596 107.672 13.7392 107.956 14.0496C108.241 14.3361 108.406 14.7181 108.406 15.1239C108.406 15.5537 108.264 15.9118 107.956 16.1983C107.672 16.5087 107.294 16.6519 106.891 16.6519C106.465 16.6519 106.11 16.5087 105.802 16.1983C105.518 15.9118 105.353 15.5298 105.353 15.1239C105.353 14.6942 105.495 14.3361 105.802 14.0496C106.11 13.7631 106.465 13.596 106.891 13.596ZM108.667 15.1239C108.667 14.6465 108.501 14.2167 108.146 13.8586C107.791 13.5244 107.388 13.3334 106.891 13.3334C106.394 13.3334 105.992 13.5005 105.637 13.8586C105.282 14.2167 105.116 14.6226 105.116 15.1239C105.116 15.6253 105.282 16.0312 105.637 16.3893C105.992 16.7474 106.394 16.9145 106.891 16.9145C107.388 16.9145 107.791 16.7474 108.146 16.3893C108.477 16.055 108.667 15.6253 108.667 15.1239ZM107.365 14.742C107.365 14.8852 107.294 15.0046 107.152 15.0523C107.081 15.0762 106.962 15.1001 106.82 15.1001H106.512V14.3838H106.797C106.986 14.3838 107.128 14.4077 107.223 14.4555C107.317 14.5271 107.365 14.5987 107.365 14.742ZM106.181 14.1451V16.1028H106.512V15.3388H106.773C106.962 15.3388 107.081 15.3627 107.152 15.4104C107.27 15.4821 107.341 15.6253 107.341 15.864V16.0073V16.055V16.0789V16.1028H107.672L107.649 16.0789C107.649 16.055 107.625 16.0312 107.625 15.9834C107.625 15.9357 107.625 15.8879 107.625 15.8402V15.6969C107.625 15.6014 107.578 15.5059 107.53 15.3866C107.459 15.2911 107.341 15.2194 107.199 15.1956C107.317 15.1717 107.412 15.1478 107.483 15.1001C107.601 15.0284 107.672 14.8852 107.672 14.7181C107.672 14.4793 107.578 14.3122 107.365 14.2167C107.246 14.169 107.081 14.1451 106.82 14.1451H106.181Z" fill="#E21B4D"/>
</g>
</g>
</svg>
