<svg width="120" height="80" viewBox="0 0 120 80" fill="none" xmlns="http://www.w3.org/2000/svg">
<g id="svgexport-1 1" clip-path="url(#clip0_11702_25661)">
<g id="g2231">
<g id="g2233">
<path id="path2235" d="M31.2114 33.8551C31.0125 33.4505 30.4834 33.1202 30.0355 33.1202H29.1253C28.6783 33.1202 28.1554 33.4543 27.962 33.8618L20.746 49.1044C20.5455 49.5077 20.7634 49.7964 21.2112 49.7964H22.8789C23.5372 49.7964 23.8389 49.4939 24.017 49.1229C24.1958 48.7519 24.5935 47.9458 24.6694 47.7813C24.7723 47.5588 25.0894 47.4224 25.5364 47.4229L33.3007 47.4271C33.7481 47.4279 34.0357 47.5139 34.1681 47.7813C34.2545 47.9554 34.6512 48.6806 34.8463 49.0763C35.0431 49.472 35.3734 49.7964 36.0147 49.7964H38.4344C38.8818 49.7964 39.0777 49.4532 38.9167 49.1342C38.7548 48.8144 31.2114 33.8551 31.2114 33.8551ZM26.6525 45.0686C26.2055 45.0686 25.9951 44.7321 26.1831 44.3229L29.0266 38.1636C29.2158 37.7532 29.5217 37.7562 29.7064 38.1662L32.4748 44.3254C32.6594 44.7362 32.4449 45.0728 31.9983 45.0728L26.6525 45.0686ZM86.9698 33.973C86.9698 34.1203 86.9698 48.7985 86.9698 49.0948C86.9698 49.5111 87.3355 49.7964 87.7833 49.7964H89.7552C90.2022 49.7964 90.5682 49.5077 90.5682 49.0553V33.9423C90.5682 33.4895 90.2794 33.1207 89.8324 33.1207H87.7833C87.3355 33.1202 86.9698 33.3985 86.9698 33.973ZM53.9255 43.4446C53.6686 43.0744 53.8097 42.6657 54.2377 42.5364C54.2377 42.5364 55.9414 42.0207 56.757 41.2812C57.573 40.5397 57.983 39.4692 57.983 38.0738C57.983 37.1615 57.8253 36.3944 57.5111 35.7704C57.1969 35.148 56.7466 34.6385 56.1606 34.2487C55.5745 33.8567 54.8731 33.5693 54.0563 33.3892C53.2382 33.21 52.1346 33.1576 52.1346 33.1576C51.6872 33.137 50.9563 33.1202 50.5097 33.1202H42.3209C41.8743 33.1202 41.5082 33.4891 41.5082 33.9419V49.0553C41.5082 49.5081 41.8739 49.7964 42.3209 49.7964H44.2587C44.7061 49.7964 45.0718 49.5077 45.0718 49.0553C45.0718 49.0553 45.073 43.0442 45.0768 43.0442C45.0801 43.0442 45.0822 43.0408 45.0822 43.0367C45.0822 43.0316 48.7557 43.0274 48.7557 43.0274C49.2023 43.0274 49.7792 43.3296 50.0378 43.6997L53.8512 49.1288C54.2057 49.6097 54.5427 49.7964 54.9897 49.7964H57.5227C57.9702 49.7964 58.0403 49.3701 57.8855 49.1485C57.7323 48.9282 53.9255 43.4446 53.9255 43.4446ZM52.3836 40.3752C51.8819 40.4919 51.317 40.5154 51.317 40.5154C50.8704 40.5351 50.1395 40.551 49.6921 40.551H45.8961C45.4487 40.551 45.083 40.1809 45.083 39.7289V36.6667C45.083 36.2143 45.4487 35.8446 45.8961 35.8446H49.6921C50.1395 35.8446 50.8704 35.861 51.317 35.8799C51.317 35.8799 51.8819 35.9025 52.3836 36.0196C52.8854 36.1367 53.2835 36.3 53.5748 36.511C53.8674 36.7234 54.0762 36.9722 54.2024 37.2584C54.3269 37.5446 54.3904 37.8564 54.3904 38.1968C54.3904 38.5354 54.3269 38.8489 54.2024 39.1347C54.0762 39.4209 53.8674 39.6698 53.5748 39.8821C53.2835 40.0945 52.8854 40.2598 52.3836 40.3752ZM111.18 33.1202C110.733 33.1202 110.372 33.4182 110.372 33.8538C110.372 34.0628 110.377 43.5209 110.377 43.5209C110.377 43.9742 110.124 44.077 109.813 43.7513L100.24 33.7111C99.9288 33.3855 99.4739 33.1202 98.8613 33.1202H97.0608C96.4947 33.1202 96.2469 33.4257 96.2469 33.735C96.2469 34.0431 96.2469 48.8841 96.2469 49.1938C96.2469 49.5023 96.5374 49.7964 96.9853 49.7964H98.7886C99.2348 49.7964 99.5478 49.5505 99.5478 49.1342C99.5478 48.9252 99.5569 38.9501 99.5569 38.9501C99.5569 38.4981 99.8096 38.3949 100.119 38.7214L110.102 49.214C110.419 49.535 110.804 49.7964 111.489 49.7964H112.844C113.292 49.7964 113.657 49.4267 113.657 48.9743V33.9423C113.657 33.4895 113.292 33.1207 112.844 33.1207L111.18 33.1202ZM72.1481 42.5465C71.931 42.9414 71.5737 42.9401 71.3595 42.5444L66.6799 33.8551C66.4811 33.4518 66.0731 33.1202 65.5045 33.1202H62.9665C62.5191 33.1202 62.1526 33.4891 62.1526 33.9419V49.036C62.1526 49.4876 62.4464 49.7964 62.9665 49.7964H64.5441C64.9919 49.7964 65.3144 49.5111 65.3144 49.075C65.3144 48.8661 65.321 38.0969 65.338 38.0969C65.3555 38.0969 71.179 49.0721 71.179 49.0721C71.3898 49.4704 71.9074 49.472 72.1224 49.0755C72.1224 49.0755 77.9936 38.1284 78.011 38.1284C78.0293 38.1284 78.0227 48.7607 78.0227 49.075C78.0227 49.5115 78.3676 49.7964 78.8154 49.7964H80.6325C81.0803 49.7964 81.4451 49.5711 81.4451 48.9743V33.9423C81.4451 33.4895 81.0803 33.1207 80.6325 33.1207H78.1995C77.5786 33.1207 77.205 33.4409 76.983 33.8341L72.1481 42.5465Z" fill="black"/>
</g>
<g id="g2237">
<path id="path2239" d="M0 41.4435C0 49.5869 8.23782 49.9998 9.8897 49.9998C15.3563 49.9998 17.6664 48.5063 17.7623 48.4416C18.1043 48.2461 18.5206 47.8516 18.5206 47.1126V41.4918C18.5206 40.9739 18.1035 40.5522 17.5909 40.5522H10.7231C10.2097 40.5522 9.87269 40.9739 9.87269 41.4918V42.0738C9.87269 42.5925 10.2097 43.0155 10.7231 43.0155H14.6955C15.079 43.0155 15.3907 43.3303 15.3907 43.718C15.3907 43.718 15.387 46.1818 15.387 46.3379C14.6021 46.6619 11.0278 47.7177 8.15564 47.0253C3.98942 46.0177 3.66485 42.5426 3.66485 41.5014C3.66485 40.6277 3.92384 36.2507 9.04052 35.808C13.1823 35.4496 15.9095 37.1404 15.9365 37.1567C16.4233 37.4119 16.9272 37.2302 17.1987 36.709C17.1999 36.7048 17.7154 35.6502 17.7154 35.6502C17.93 35.2163 17.8577 34.7664 17.334 34.4072C17.2991 34.387 14.3959 32.7953 9.89053 32.7953C0.27725 32.7957 0 40.5585 0 41.4435Z" fill="black"/>
</g>
<g id="g2241">
<path id="path2243" d="M116.241 47.7207H115.533V47.4626H117.255V47.7207H116.544V49.8144H116.241V47.7207Z" fill="black"/>
<path id="path2245" d="M119.647 48.7813C119.63 48.4531 119.609 48.0553 119.609 47.7657H119.602C119.519 48.0377 119.426 48.3344 119.309 48.6592L118.898 49.7998H118.67L118.291 48.6802C118.18 48.3453 118.091 48.0448 118.025 47.7657H118.018C118.011 48.0587 117.993 48.4498 117.973 48.8056L117.911 49.8137H117.625L117.787 47.4619H118.17L118.567 48.5996C118.664 48.8892 118.74 49.1477 118.802 49.3915H118.809C118.871 49.1544 118.954 48.8963 119.058 48.5996L119.472 47.4619H119.855L120 49.8137H119.703L119.647 48.7813Z" fill="black"/>
</g>
<g id="g2247">
<g id="g2249">
<path id="use2254" d="M110.27 28.9527L99.4823 28.9523C99.0868 28.9523 98.7473 28.7534 98.5497 28.4072C98.3521 28.061 98.3521 27.6648 98.5501 27.3186L103.944 17.8772C104.142 17.5315 104.481 17.3334 104.877 17.3334C105.272 17.3334 105.611 17.5315 105.809 17.8772L111.202 27.319C111.401 27.6652 111.401 28.0618 111.203 28.408C111.005 28.7538 110.666 28.9527 110.27 28.9527Z" fill="#007CC2"/>
</g>
</g>
</g>
</g>
<defs>
<clipPath id="clip0_11702_25661">
<rect width="120" height="80" fill="white"/>
</clipPath>
</defs>
</svg>
